<svg  viewBox="0 0 387.301 75.201" xmlns="http://www.w3.org/2000/svg"><g id="svgGroup" stroke-linecap="round" fill-rule="evenodd" font-size="9pt" stroke="#ffffff" stroke-width="0.25mm" fill="#ffffff" style="stroke:#ffffff;stroke-width:0.25mm;fill:#ffffff"><path d="M 228.801 74 L 219.801 74 L 219.801 4 L 233.101 4 L 252.501 48.3 L 271.601 4 L 285.201 4 L 285.201 74 L 275.701 74 L 275.701 16.1 L 257.001 58.2 L 247.601 58.2 L 228.801 16.1 L 228.801 74 Z M 74.601 69.8 L 78.401 62.3 A 18.557 18.557 0 0 0 81.544 64.426 Q 83.099 65.27 84.951 65.95 A 24.073 24.073 0 0 0 92.562 67.387 A 27.464 27.464 0 0 0 93.401 67.4 Q 98.793 67.4 101.636 65.685 A 7.738 7.738 0 0 0 101.851 65.55 Q 104.701 63.7 104.701 60.8 A 7.123 7.123 0 0 0 104.387 58.653 A 6.212 6.212 0 0 0 103.651 57.1 A 6.384 6.384 0 0 0 102.722 56.006 Q 101.708 55.034 100.034 54.081 A 22.3 22.3 0 0 0 99.801 53.95 A 28.462 28.462 0 0 0 97.807 52.957 Q 95.691 51.995 92.702 50.946 A 103.602 103.602 0 0 0 91.701 50.6 A 46.616 46.616 0 0 1 87.303 48.857 Q 85.189 47.883 83.513 46.795 A 19.335 19.335 0 0 1 80.751 44.65 A 11.324 11.324 0 0 1 77.457 38.654 A 16.794 16.794 0 0 1 77.101 35.1 Q 77.101 29.1 82.351 24.95 Q 86.755 21.469 94.009 20.908 A 37.527 37.527 0 0 1 96.901 20.8 A 40.794 40.794 0 0 1 101.346 21.031 Q 103.654 21.284 105.671 21.815 A 25.234 25.234 0 0 1 105.801 21.85 Q 109.701 22.9 112.801 24.5 L 110.301 31.9 Q 107.601 30.3 104.151 29.3 A 25.024 25.024 0 0 0 99.667 28.453 A 31.837 31.837 0 0 0 96.501 28.3 A 20.632 20.632 0 0 0 93.564 28.495 Q 90.478 28.94 88.601 30.4 A 9.322 9.322 0 0 0 87.243 31.673 Q 86.54 32.492 86.206 33.365 A 4.529 4.529 0 0 0 85.901 35 A 4.921 4.921 0 0 0 87.396 38.552 A 7.082 7.082 0 0 0 88.001 39.1 Q 90.066 40.772 95.999 42.734 A 84.459 84.459 0 0 0 96.201 42.8 A 67.753 67.753 0 0 1 101.263 44.698 Q 107.19 47.217 110.001 50.1 Q 113.901 54.1 113.901 60.1 Q 113.901 66.848 108.65 70.855 A 16.618 16.618 0 0 1 108.251 71.15 Q 103.511 74.547 96.062 75.095 A 40.423 40.423 0 0 1 93.101 75.2 Q 87.201 75.2 82.451 73.7 A 30.883 30.883 0 0 1 78.61 72.215 Q 76.63 71.284 75.048 70.136 A 18.229 18.229 0 0 1 74.601 69.8 Z M 344.301 51.7 L 307.901 51.7 A 24.088 24.088 0 0 0 309.04 56.725 Q 310.376 60.538 313.001 63.1 Q 317.201 67.2 324.101 67.2 Q 328.601 67.2 332.201 66.25 Q 335.801 65.3 339.101 63.8 L 341.201 71.5 A 40.77 40.77 0 0 1 336.866 73.126 A 51.863 51.863 0 0 1 333.101 74.15 A 38.914 38.914 0 0 1 328.009 74.969 A 52.025 52.025 0 0 1 323.001 75.2 A 28.318 28.318 0 0 1 315.255 74.195 A 21.108 21.108 0 0 1 305.251 68.05 A 23.521 23.521 0 0 1 300.046 58.51 Q 298.701 53.845 298.701 48 A 35.359 35.359 0 0 1 299.533 40.178 A 28.84 28.84 0 0 1 301.651 34.05 A 24.642 24.642 0 0 1 306.667 26.968 A 22.887 22.887 0 0 1 309.901 24.35 A 21.048 21.048 0 0 1 320.16 20.878 A 26.205 26.205 0 0 1 322.201 20.8 Q 329.701 20.8 334.651 24.05 Q 339.601 27.3 342.101 32.8 A 28.185 28.185 0 0 1 344.527 42.664 A 33.434 33.434 0 0 1 344.601 44.9 A 75.204 75.204 0 0 1 344.31 51.597 A 69.426 69.426 0 0 1 344.301 51.7 Z M 358.601 56.1 L 358.601 31.7 L 349.601 31.7 L 349.601 23.9 L 358.801 23.9 L 360.701 7.5 L 367.601 7.5 L 367.601 23.9 L 382.001 23.9 L 382.001 31.7 L 367.601 31.7 L 367.601 56.8 A 21.559 21.559 0 0 0 367.768 59.596 Q 368.242 63.202 370.051 64.9 Q 372.501 67.2 375.901 67.2 Q 378.401 67.2 380.651 66.4 Q 382.901 65.6 384.801 64.5 L 387.301 71.7 A 18.546 18.546 0 0 1 385.682 72.556 Q 384.881 72.935 383.935 73.308 A 43.365 43.365 0 0 1 381.901 74.05 Q 378.501 75.2 374.801 75.2 Q 367.301 75.2 362.951 70.25 A 16.116 16.116 0 0 1 359.722 64.348 Q 358.96 61.917 358.716 58.98 A 34.777 34.777 0 0 1 358.601 56.1 Z M 25.409 74.442 A 36.51 36.51 0 0 0 33.001 75.2 A 38.35 38.35 0 0 0 38.162 74.863 A 30.074 30.074 0 0 0 46.901 72.35 Q 53.001 69.5 57.301 64.55 Q 61.601 59.6 63.851 53 Q 66.101 46.4 66.101 38.9 A 48.215 48.215 0 0 0 66.022 36.123 A 41.439 41.439 0 0 0 63.851 24.9 Q 61.601 18.4 57.301 13.4 Q 53.001 8.4 46.851 5.6 A 29.925 29.925 0 0 0 40.959 3.637 A 36.42 36.42 0 0 0 33.001 2.8 A 39.35 39.35 0 0 0 26.773 3.276 A 29.661 29.661 0 0 0 15.301 7.55 Q 7.901 12.3 3.951 20.45 A 37.989 37.989 0 0 0 1.115 28.563 A 46.182 46.182 0 0 0 0.001 38.9 A 48.913 48.913 0 0 0 0.036 40.761 A 42.769 42.769 0 0 0 2.251 53 A 39.376 39.376 0 0 0 2.69 54.223 A 34.353 34.353 0 0 0 8.751 64.55 Q 13.001 69.5 19.101 72.35 A 29.142 29.142 0 0 0 25.409 74.442 Z M 125.401 57.7 L 125.401 0 L 134.401 0 L 134.401 56.8 A 20.644 20.644 0 0 0 134.589 59.688 Q 135.051 62.952 136.651 64.8 A 7.363 7.363 0 0 0 141.234 67.276 A 10.724 10.724 0 0 0 142.901 67.4 Q 144.801 67.4 146.651 66.95 A 22.192 22.192 0 0 0 148.114 66.544 Q 149.049 66.247 149.801 65.9 L 152.001 73.2 Q 150.601 73.822 148.689 74.323 A 34.978 34.978 0 0 1 147.551 74.6 A 23.816 23.816 0 0 1 144.395 75.085 A 30.514 30.514 0 0 1 141.701 75.2 A 20.862 20.862 0 0 1 136.81 74.646 A 17.544 17.544 0 0 1 133.401 73.45 A 12.683 12.683 0 0 1 128.076 68.685 A 15.856 15.856 0 0 1 127.551 67.8 Q 125.816 64.654 125.481 60.012 A 32.105 32.105 0 0 1 125.401 57.7 Z M 167.601 71.75 A 24.559 24.559 0 0 0 172.199 73.84 Q 176.254 75.2 180.901 75.2 Q 188.301 75.2 194.151 71.8 Q 200.001 68.4 203.401 62.25 A 26.255 26.255 0 0 0 206.054 55.109 A 34.184 34.184 0 0 0 206.801 47.8 A 34.542 34.542 0 0 0 206.316 41.891 A 25.795 25.795 0 0 0 203.351 33.45 Q 199.901 27.4 194.051 24.1 A 24.848 24.848 0 0 0 189.409 22.073 A 27.738 27.738 0 0 0 180.901 20.8 A 31.325 31.325 0 0 0 179.321 20.839 A 26.169 26.169 0 0 0 167.701 24.1 Q 161.801 27.4 158.401 33.5 A 26.023 26.023 0 0 0 155.651 41.09 A 35.006 35.006 0 0 0 155.001 48 A 34.82 34.82 0 0 0 155.266 52.354 A 27.451 27.451 0 0 0 158.351 62.15 Q 161.701 68.3 167.601 71.75 Z M 33.001 67 A 26.517 26.517 0 0 0 38.949 66.366 A 19.316 19.316 0 0 0 45.901 63.3 A 22.47 22.47 0 0 0 53.226 54.429 A 27.252 27.252 0 0 0 53.751 53.25 A 34.108 34.108 0 0 0 56.073 44.321 A 43.503 43.503 0 0 0 56.401 38.9 Q 56.401 33.5 54.801 28.5 A 29.735 29.735 0 0 0 50.661 20.174 A 28.121 28.121 0 0 0 50.201 19.55 Q 47.201 15.6 42.851 13.3 A 19.921 19.921 0 0 0 35.434 11.118 A 24.578 24.578 0 0 0 33.001 11 A 24.086 24.086 0 0 0 26.508 11.84 A 19.545 19.545 0 0 0 20.451 14.7 A 23.148 23.148 0 0 0 12.85 23.827 A 27.785 27.785 0 0 0 12.451 24.7 A 32.793 32.793 0 0 0 9.997 33.888 A 41.257 41.257 0 0 0 9.701 38.9 Q 9.701 44.3 11.251 49.35 A 29.379 29.379 0 0 0 15.431 57.896 A 27.923 27.923 0 0 0 15.801 58.4 Q 18.801 62.4 23.151 64.7 A 19.921 19.921 0 0 0 30.568 66.882 A 24.578 24.578 0 0 0 33.001 67 Z M 180.901 67.2 Q 188.801 67.2 193.201 61.85 A 18.802 18.802 0 0 0 197.02 53.76 A 27.105 27.105 0 0 0 197.601 48 Q 197.601 42.8 195.401 38.45 A 19.198 19.198 0 0 0 191.229 32.881 A 18.17 18.17 0 0 0 189.451 31.45 Q 185.701 28.8 180.901 28.8 A 19.249 19.249 0 0 0 175.675 29.472 A 14.037 14.037 0 0 0 168.601 34 A 17.878 17.878 0 0 0 164.927 41.374 Q 164.201 44.306 164.201 47.8 Q 164.201 53 166.401 57.45 A 19.437 19.437 0 0 0 169.931 62.49 A 17.627 17.627 0 0 0 172.351 64.55 Q 176.101 67.2 180.901 67.2 Z M 307.801 44.4 L 336.301 44.4 A 24.355 24.355 0 0 0 335.896 39.815 Q 335.401 37.231 334.296 35.207 A 12.422 12.422 0 0 0 332.501 32.7 A 12.488 12.488 0 0 0 325.54 28.924 A 18.395 18.395 0 0 0 322.001 28.6 A 13.58 13.58 0 0 0 316.889 29.535 A 12.524 12.524 0 0 0 312.401 32.65 Q 308.601 36.7 307.801 44.4 Z" vector-effect="non-scaling-stroke"/></g></svg>